<?xml version="1.0" encoding="UTF-8" standalone="no"?>
<!-- Created with Inkscape (http://www.inkscape.org/) -->

<svg
   xmlns:dc="http://purl.org/dc/elements/1.1/"
   xmlns:cc="http://creativecommons.org/ns#"
   xmlns:rdf="http://www.w3.org/1999/02/22-rdf-syntax-ns#"
   xmlns:svg="http://www.w3.org/2000/svg"
   xmlns="http://www.w3.org/2000/svg"
   xmlns:sodipodi="http://sodipodi.sourceforge.net/DTD/sodipodi-0.dtd"
   xmlns:inkscape="http://www.inkscape.org/namespaces/inkscape"
   id="svg2"
   height="640"
   viewBox="0 0 360 640.00001"
   width="360"
   version="1.1"
   inkscape:version="0.48.4 r9939"
   sodipodi:docname="day-compressed.svg">
  <defs
     id="defs3111" />
  <sodipodi:namedview
     pagecolor="#ffffff"
     bordercolor="#666666"
     borderopacity="1"
     objecttolerance="10"
     gridtolerance="10"
     guidetolerance="10"
     inkscape:pageopacity="0"
     inkscape:pageshadow="2"
     inkscape:window-width="937"
     inkscape:window-height="1028"
     id="namedview3109"
     showgrid="false"
     inkscape:zoom="1.4203125"
     inkscape:cx="194.1543"
     inkscape:cy="321.30434"
     inkscape:window-x="982"
     inkscape:window-y="24"
     inkscape:window-maximized="0"
     inkscape:current-layer="svg2" />
  <metadata
     id="metadata7">
    <rdf:RDF>
      <cc:Work
         rdf:about="">
        <dc:format>image/svg+xml</dc:format>
        <dc:type
           rdf:resource="http://purl.org/dc/dcmitype/StillImage" />
        <dc:title />
      </cc:Work>
    </rdf:RDF>
  </metadata>
  <g
     id="layer2">
    <rect
       id="sky"
       height="440"
       width="360"
       y="0"
       x="0"
       fill="#a4f0fe" />
    <path
       id="rect6987"
       fill="#0fb4d0"
       d="m0 445v195h360v-195h-360z" />
    <rect
       id="rect6987-4-6"
       height="5"
       width="360"
       y="440"
       x="0"
       fill="#63e5ff" />
    <g
       id="g7490">
      <path
         id="path7279-5-2-2-2"
         d="m337.37 571.21-31.242 4.4517 3.9681 2.5467h23.33l3.944-6.9984z"
         fill="#97c73d" />
      <path
         id="path7284-1-57"
         d="m325.82 560.35c-0.16372-0.14721-14.424 13.677-14.541 13.86 1.9722-0.30213 9.3535-3.5337 14.629-1.3439l0.11003 0.0152c0.049-4.464-0.0793-12.425-0.19764-12.532z"
         fill="#fafafa"
         fill-opacity=".94118" />
    </g>
  </g>
  <g
     id="layer1"
     transform="translate(0 -412.36)">
    <path
       id="path3352"
       d="m95.022 470.39a34.635 34.635 0 0 1 -34.635 34.635 34.635 34.635 0 0 1 -34.635 -34.635 34.635 34.635 0 0 1 34.635 -34.635 34.635 34.635 0 0 1 34.635 34.635z"
       fill-rule="evenodd"
       stroke="#fcc930"
       fill="#ffeb3b" />
  </g>
  <path
     id="path6780-9"
     d="m303.7 229.27-29.064 45.068 42.26 51.918 28.307-37.836-41.502-59.15zm-174.08 27.881-16.746 25.459 51.441 69.51 15.971-21.348-50.666-73.621z"
     fill="#061736" />
  <path
     id="path6780-6"
     d="m72.273 227.76-72.273 106.25v105.99h360v-171.37l-43.11 57.63-69.42-85.29-83.16 111.15-92.037-124.36z"
     fill="#1c6b89" />
  <path
     id="path7284-1"
     fill-opacity=".94118"
     fill="#fafafa"
     d="m45.821 580.35c-0.16372-0.14721-14.424 13.677-14.541 13.86 1.9722-0.30213 9.3535-3.5337 14.629-1.3439l0.11003 0.0152c0.04904-4.464-0.07925-12.425-0.19764-12.532z" />
  <path
     id="path7279-5-2"
     d="m57.373 591.21-31.242 4.4517 3.9681 2.5467h23.33l3.944-6.9984z"
     fill="#fbc02d" />
  <g
     id="g7472">
    <path
       id="path7279-5-2-2-9"
       d="m112.37 551.21-31.242 4.4517 3.9681 2.5467h23.33l3.944-6.9984z"
       fill="#e53935" />
    <path
       id="path7284-1-5"
       fill-opacity=".94118"
       fill="#fafafa"
       d="m100.82 540.35c-0.16372-0.14721-14.424 13.677-14.541 13.86 1.9722-0.30213 9.3535-3.5337 14.629-1.3439l0.11003 0.0152c0.049-4.464-0.0793-12.425-0.19764-12.532z" />
  </g>
  <path
     style="fill:#ffffff;fill-opacity:0.94117647"
     inkscape:connector-curvature="0"
     id="path5932-5-8-7-3-5"
     d="m 82.023748,77.160006 a 15,14.661 0 0 0 -14.959,13.863 15,14.661 0 0 0 -0.21875,-0.01 15,14.661 0 0 0 -14.979,14.078004 H 127.228 a 15,14.661 0 0 0 -14.969,-14.027004 15,14.661 0 0 0 -1.9922,0.14649 15,14.661 0 0 0 -12.248002,-6.2285 15,14.661 0 0 0 -2.6094,0.22852 15,14.661 0 0 0 -13.387,-8.0508 z" />
  <path
     style="fill:#ffffff;fill-opacity:0.94117647"
     inkscape:connector-curvature="0"
     id="path5932-5-8-7"
     d="m 235.79975,105.27001 a 15,14.661 0 0 0 -14.959,13.863 15,14.661 0 0 0 -0.21875,-0.01 15,14.661 0 0 0 -14.979,14.078 h 75.361 a 15,14.661 0 0 0 -14.969,-14.027 15,14.661 0 0 0 -1.9922,0.14649 15,14.661 0 0 0 -12.248,-6.2285 15,14.661 0 0 0 -2.6094,0.22852 15,14.661 0 0 0 -13.387,-8.0508 z" />
  <path
     style="fill:#ffffff;fill-opacity:0.94117647"
     inkscape:connector-curvature="0"
     id="path5932-5-8-7-3"
     d="m 89.697748,158.64 a 15,14.661 0 0 0 -14.959,13.863 15,14.661 0 0 0 -0.21875,-0.01 15,14.661 0 0 0 -14.979,14.078 H 134.902 a 15,14.661 0 0 0 -14.969,-14.027 15,14.661 0 0 0 -1.9922,0.14649 15,14.661 0 0 0 -12.248,-6.2285 15,14.661 0 0 0 -2.6094,0.22852 15,14.661 0 0 0 -13.387002,-8.0508 z" />
  <path
     style="fill:#ffffff;fill-opacity:0.94117647"
     inkscape:connector-curvature="0"
     id="path5932-5-8-7-3-5-1"
     d="m 352.61975,121.29001 a 15,14.661 0 0 0 -14.959,13.86299 15,14.661 0 0 0 -0.21875,-0.01 15,14.661 0 0 0 -14.979,14.078 h 38.133 v -25.66399 a 15,14.661 0 0 0 -7.9766,-2.2676 z" />
</svg>
