<?xml version="1.0" encoding="UTF-8" standalone="no"?>
<!-- Created with Inkscape (http://www.inkscape.org/) -->

<svg
   xmlns:dc="http://purl.org/dc/elements/1.1/"
   xmlns:cc="http://creativecommons.org/ns#"
   xmlns:rdf="http://www.w3.org/1999/02/22-rdf-syntax-ns#"
   xmlns:svg="http://www.w3.org/2000/svg"
   xmlns="http://www.w3.org/2000/svg"
   xmlns:sodipodi="http://sodipodi.sourceforge.net/DTD/sodipodi-0.dtd"
   xmlns:inkscape="http://www.inkscape.org/namespaces/inkscape"
   id="svg2"
   height="640"
   viewBox="0 0 360 640.00001"
   width="360"
   version="1.1"
   inkscape:version="0.48.4 r9939"
   sodipodi:docname="night-compressed.svg">
  <defs
     id="defs3202" />
  <sodipodi:namedview
     pagecolor="#ffffff"
     bordercolor="#666666"
     borderopacity="1"
     objecttolerance="10"
     gridtolerance="10"
     guidetolerance="10"
     inkscape:pageopacity="0"
     inkscape:pageshadow="2"
     inkscape:window-width="937"
     inkscape:window-height="1028"
     id="namedview3200"
     showgrid="false"
     inkscape:zoom="1.475"
     inkscape:cx="57.312518"
     inkscape:cy="448.92411"
     inkscape:window-x="45"
     inkscape:window-y="24"
     inkscape:window-maximized="0"
     inkscape:current-layer="svg2" />
  <metadata
     id="metadata7">
    <rdf:RDF>
      <cc:Work
         rdf:about="">
        <dc:format>image/svg+xml</dc:format>
        <dc:type
           rdf:resource="http://purl.org/dc/dcmitype/StillImage" />
        <dc:title />
      </cc:Work>
    </rdf:RDF>
  </metadata>
  <rect
     id="sky"
     height="440"
     width="360"
     y="-.000014648"
     x="0"
     fill="#282833"
     style="fill:#1e2d3f;fill-opacity:0.94117647" />
  <path
     id="path3352"
     d="m53.85 23.771a35 35 0 0 0 -28.598 34.389 35 35 0 0 0 35 35 35 35 0 0 0 34.383 -28.582 29 29 0 0 1 -22.371 10.57 29 29 0 0 1 -29 -29 29 29 0 0 1 10.586 -22.377z"
     fill-rule="evenodd"
     fill="#f3eb66" />
  <path
     id="path6780-9"
     fill="#061736"
     d="m303.7 229.27-29.064 45.068 42.26 51.918 28.307-37.836-41.502-59.15zm-174.08 27.881-16.746 25.459 51.441 69.51 15.971-21.348-50.666-73.621z" />
  <path
     id="path6780-6"
     fill="#252a5a"
     d="m72.273 227.76-72.273 106.26v61.205 44.781h360v-19.106-152.26l-43.109 57.623-69.424-85.289-83.158 111.15-92.035-124.36z" />
  <path
     id="rect6987"
     fill="#3f477d"
     d="m0 445v195h360v-195h-360z" />
  <rect
     id="rect6987-4-6"
     fill-opacity=".72222"
     height="5"
     width="360"
     y="440"
     x="0"
     fill="#707baa" />
  <path
     id="path5932-5-8-7-3-5"
     d="m82.024 77.16a15 14.661 0 0 0 -14.959 13.863 15 14.661 0 0 0 -0.21875 -0.01 15 14.661 0 0 0 -14.979 14.078h75.361a15 14.661 0 0 0 -14.969 -14.027 15 14.661 0 0 0 -1.9922 0.14649 15 14.661 0 0 0 -12.248 -6.2285 15 14.661 0 0 0 -2.6094 0.22852 15 14.661 0 0 0 -13.387 -8.0508z"
     fill-opacity=".94118"
     fill="#bdbdbd" />
  <path
     id="path5932-5-8-7"
     d="m235.8 105.27a15 14.661 0 0 0 -14.959 13.863 15 14.661 0 0 0 -0.21875 -0.01 15 14.661 0 0 0 -14.979 14.078h75.361a15 14.661 0 0 0 -14.969 -14.027 15 14.661 0 0 0 -1.9922 0.14649 15 14.661 0 0 0 -12.248 -6.2285 15 14.661 0 0 0 -2.6094 0.22852 15 14.661 0 0 0 -13.387 -8.0508z"
     fill-opacity=".94118"
     fill="#bdbdbd" />
  <path
     id="path5932-5-8-7-3"
     d="m89.698 158.64a15 14.661 0 0 0 -14.959 13.863 15 14.661 0 0 0 -0.21875 -0.01 15 14.661 0 0 0 -14.979 14.078h75.361a15 14.661 0 0 0 -14.969 -14.027 15 14.661 0 0 0 -1.9922 0.14649 15 14.661 0 0 0 -12.248 -6.2285 15 14.661 0 0 0 -2.6094 0.22852 15 14.661 0 0 0 -13.387 -8.0508z"
     fill-opacity=".94118"
     fill="#bdbdbd" />
  <path
     id="path5932-5-8-7-3-5-1"
     d="m352.62 121.29a15 14.661 0 0 0 -14.959 13.863 15 14.661 0 0 0 -0.21875 -0.01 15 14.661 0 0 0 -14.979 14.078h38.133v-25.664a15 14.661 0 0 0 -7.9766 -2.2676z"
     fill-opacity=".94118"
     fill="#bdbdbd" />
  <path
     id="path3352-3"
     d="m58.378 559.39a35 35 0 0 1 -28.598 -34.389 35 35 0 0 1 35 -35 35 35 0 0 1 34.383 28.582 29 29 0 0 0 -22.371 -10.57 29 29 0 0 0 -29 29 29 29 0 0 0 10.586 22.377z"
     fill-rule="evenodd"
     fill-opacity=".56471"
     fill="#f3eb66" />
</svg>
