<svg xmlns="http://www.w3.org/2000/svg" height="640" viewBox="0 0 360 640" width="360" version="1.1"><rect height="440" width="360" y="0" x="0" fill="#a4f0fe"/><path d="m0 445v195h360v-195h-360z" fill="#0fb4d0"/><rect height="5" width="360" y="440" x="0" fill="#63e5ff"/><path fill="#97c73d" d="m337.4 571.2-31.2 4.5 4 2.5h23.3l3.9-7zM325.8 560.4"/><path fill-opacity="0.9" fill="#fafafa" d="m325.8 560.4c-0.2-0.1-14.4 13.7-14.5 13.9 2-0.3 9.4-3.5 14.6-1.3l0.1 0c0-4.5-0.1-12.4-0.2-12.5z"/><g transform="translate(0 -412.36)"><path stroke="#fcc930" fill-rule="evenodd" fill="#ffeb3b" d="m95 470.4a34.6 34.6 0 0 1-34.6 34.6 34.6 34.6 0 0 1-34.6-34.6 34.6 34.6 0 0 1 34.6-34.6 34.6 34.6 0 0 1 34.6 34.6z"/></g><path fill="#061736" d="m303.7 229.3-29.1 45.1 42.3 51.9 28.3-37.8-41.5-59.1zm-174.1 27.9-16.7 25.5 51.4 69.5 16-21.3-50.7-73.6zM72.3 227.8l-72.3 106.3"/><path fill="#1c6b89" d="m72.3 227.8-72.3 106.3v106h360v-171.4l-43.1 57.6-69.4-85.3-83.2 111.2-92-124.4z"/><path d="m45.8 580.4c-0.2-0.1-14.4 13.7-14.5 13.9 2-0.3 9.4-3.5 14.6-1.3l0.1 0c0-4.5-0.1-12.4-0.2-12.5z" fill="#fafafa" fill-opacity="0.9"/><path fill="#fbc02d" d="m57.4 591.2-31.2 4.5 4 2.5h23.3l3.9-7z"/><path fill="#e53935" d="m112.4 551.2-31.2 4.5 4 2.5h23.3l3.9-7zM100.8 540.4"/><path d="m100.8 540.4c-0.2-0.1-14.4 13.7-14.5 13.9 2-0.3 9.4-3.5 14.6-1.3l0.1 0c0-4.5-0.1-12.4-0.2-12.5z" fill="#fafafa" fill-opacity="0.9"/><path d="m82 77.2a15 14.7 0 0 0-15 13.9 15 14.7 0 0 0-0.2 0 15 14.7 0 0 0-15 14.1h75.4a15 14.7 0 0 0-15-14 15 14.7 0 0 0-2 0.1 15 14.7 0 0 0-12.2-6.2 15 14.7 0 0 0-2.6 0.2 15 14.7 0 0 0-13.4-8.1zM235.8 105.3" fill-opacity="0.9" fill="#fff"/><path d="m235.8 105.3a15 14.7 0 0 0-15 13.9 15 14.7 0 0 0-0.2 0 15 14.7 0 0 0-15 14.1h75.4a15 14.7 0 0 0-15-14 15 14.7 0 0 0-2 0.1 15 14.7 0 0 0-12.2-6.2 15 14.7 0 0 0-2.6 0.2 15 14.7 0 0 0-13.4-8.1z" fill-opacity="0.9" fill="#fff"/><path d="m89.7 158.6a15 14.7 0 0 0-15 13.9 15 14.7 0 0 0-0.2 0 15 14.7 0 0 0-15 14.1h75.4a15 14.7 0 0 0-15-14 15 14.7 0 0 0-2 0.1 15 14.7 0 0 0-12.2-6.2 15 14.7 0 0 0-2.6 0.2 15 14.7 0 0 0-13.4-8.1z" fill-opacity="0.9" fill="#fff"/><path d="m352.6 121.3a15 14.7 0 0 0-15 13.9 15 14.7 0 0 0-0.2 0 15 14.7 0 0 0-15 14.1h38.1v-25.7a15 14.7 0 0 0-8-2.3z" fill-opacity="0.9" fill="#fff"/></svg>