<svg xmlns="http://www.w3.org/2000/svg" height="640" viewBox="0 0 360 640" width="360" version="1.1"><rect fill-opacity="0.94" height="440" width="360" y="0" x="0" fill="#1e2d3f"/><path fill-rule="evenodd" fill="#f3eb66" d="m53.85 23.77a35 35 0 0 0-28.6 34.39 35 35 0 0 0 35 35 35 35 0 0 0 34.38-28.58 29 29 0 0 1-22.37 10.57 29 29 0 0 1-29-29 29 29 0 0 1 10.59-22.38zM303.7 229.27l-29.06 45.07 42.26 51.92 28.31-37.84-41.5-59.15M303.7 229.27l-29.06 45.07 42.26 51.92 28.31-37.84-41.5-59.15"/><path d="m303.7 229.27-29.06 45.07 42.26 51.92 28.31-37.84-41.5-59.15zm-174.08 27.88-16.75 25.46 51.44 69.51 15.97-21.35-50.67-73.62z" fill="#061736"/><path d="m72.27 227.76-72.27 106.26v105.99h360v-171.37l-43.11 57.62-69.42-85.29-83.16 111.15-92.03-124.36z" fill="#252a5a"/><path d="m0 445v195h360v-195h-360z" fill="#3f477d"/><rect fill-opacity="0.72" height="5" width="360" y="440" x="0" fill="#707baa"/><path fill-opacity="0.94" fill="#bdbdbd" d="m82.02 77.16a15 14.66 0 0 0-14.96 13.86 15 14.66 0 0 0-0.22-0.01 15 14.66 0 0 0-14.98 14.08h75.36a15 14.66 0 0 0-14.97-14.03 15 14.66 0 0 0-1.99 0.15 15 14.66 0 0 0-12.25-6.23 15 14.66 0 0 0-2.61 0.23 15 14.66 0 0 0-13.39-8.05zM235.8 105.27 235.8 105.27"/><path fill-opacity="0.94" fill="#bdbdbd" d="m235.8 105.27a15 14.66 0 0 0-14.96 13.86 15 14.66 0 0 0-0.22-0.01 15 14.66 0 0 0-14.98 14.08h75.36a15 14.66 0 0 0-14.97-14.03 15 14.66 0 0 0-1.99 0.15 15 14.66 0 0 0-12.25-6.23 15 14.66 0 0 0-2.61 0.23 15 14.66 0 0 0-13.39-8.05z"/><path fill-opacity="0.94" fill="#bdbdbd" d="m89.7 158.64a15 14.66 0 0 0-14.96 13.86 15 14.66 0 0 0-0.22-0.01 15 14.66 0 0 0-14.98 14.08h75.36a15 14.66 0 0 0-14.97-14.03 15 14.66 0 0 0-1.99 0.15 15 14.66 0 0 0-12.25-6.23 15 14.66 0 0 0-2.61 0.23 15 14.66 0 0 0-13.39-8.05z"/><path fill-opacity="0.94" fill="#bdbdbd" d="m352.62 121.29a15 14.66 0 0 0-14.96 13.86 15 14.66 0 0 0-0.22-0.01 15 14.66 0 0 0-14.98 14.08h38.13v-25.66a15 14.66 0 0 0-7.98-2.27z"/><path fill-opacity="0.56" fill-rule="evenodd" fill="#f3eb66" d="m58.38 559.39a35 35 0 0 1-28.6-34.39 35 35 0 0 1 35-35 35 35 0 0 1 34.38 28.58 29 29 0 0 0-22.37-10.57 29 29 0 0 0-29 29 29 29 0 0 0 10.59 22.38z"/></svg>